<svg preserveAspectRatio="none" width="100%" height="100%" overflow="visible" style="display: block;" viewBox="0 0 21.5535 22.4258" fill="none" xmlns="http://www.w3.org/2000/svg">
<g id="elements">
<g id="Icon">
<path fill-rule="evenodd" clip-rule="evenodd" d="M4.44962 5.77093L2.96452 5.77093C2.47231 5.77087 2.02384 5.77082 1.6649 5.82329C1.27024 5.88099 0.849844 6.01898 0.536577 6.40148C0.226727 6.77981 0.168968 7.21809 0.180415 7.61659C0.19099 7.98474 0.26657 8.43532 0.350698 8.93686L1.57028 16.212C1.76294 17.3614 1.91877 18.291 2.13321 19.0179C2.356 19.7731 2.6659 20.3991 3.22363 20.8823C3.78363 21.3674 4.44269 21.5781 5.2125 21.6767C5.94899 21.771 6.86943 21.771 8.00058 21.7709L12.8576 21.7709C13.2815 21.7709 13.6759 21.7709 14.042 21.766C13.9686 21.5307 13.9291 21.2804 13.9291 21.0209L13.9291 19.5209L12.4291 19.5209C11.0484 19.5209 9.92909 18.4016 9.92909 17.0209C9.92909 15.6402 11.0484 14.5209 12.4291 14.5209L13.9291 14.5209L13.9291 13.0209C13.9291 11.6402 15.0484 10.5209 16.4291 10.5209C17.8098 10.5209 18.9291 11.6402 18.9291 13.0209L18.9291 14.5209L19.5714 14.5209L20.5075 8.93683C20.5916 8.4353 20.6672 7.98473 20.6777 7.61659C20.6892 7.21809 20.6314 6.77981 20.3216 6.40148C20.0083 6.01898 19.5879 5.88099 19.1933 5.82329C18.8343 5.77082 18.3859 5.77087 17.8937 5.77093L16.4085 5.77093C16.1545 2.69116 13.5744 0.270927 10.4291 0.270927C7.28375 0.270927 4.70369 2.69116 4.44962 5.77093ZM6.46003 5.77093L14.3981 5.77093C14.1521 3.79777 12.4689 2.27093 10.4291 2.27093C8.38928 2.27093 6.70608 3.79777 6.46003 5.77093Z" fill="var(--fill-0, #346E3C)"/>
<path d="M16.4291 12.0209C16.9814 12.0209 17.4291 12.4686 17.4291 13.0209L17.4291 16.0209L20.4291 16.0209C20.9814 16.0209 21.4291 16.4686 21.4291 17.0209C21.4291 17.5732 20.9814 18.0209 20.4291 18.0209L17.4291 18.0209L17.4291 21.0209C17.4291 21.5732 16.9814 22.0209 16.4291 22.0209C15.8768 22.0209 15.4291 21.5732 15.4291 21.0209L15.4291 18.0209L12.4291 18.0209C11.8768 18.0209 11.4291 17.5732 11.4291 17.0209C11.4291 16.4686 11.8768 16.0209 12.4291 16.0209L15.4291 16.0209L15.4291 13.0209C15.4291 12.4686 15.8768 12.0209 16.4291 12.0209Z" fill="var(--fill-0, #346E3C)"/>
</g>
</g>
</svg>
