<svg width="24" height="24" viewBox="0 0 24 24" fill="none" xmlns="http://www.w3.org/2000/svg">
<path fill-rule="evenodd" clip-rule="evenodd" d="M4.14526 3.35485C7.12624 1.52632 9.80046 2.25507 11.416 3.4683C11.6818 3.6679 11.8642 3.80449 12 3.89674C12.1358 3.80449 12.3182 3.6679 12.584 3.4683C14.1995 2.25507 16.8737 1.52632 19.8547 3.35485C21.9159 4.61922 23.0758 7.2603 22.6688 10.2948C22.2598 13.344 20.2862 16.7926 16.1066 19.8862C16.0717 19.9121 16.037 19.9377 16.0026 19.9632C14.5512 21.0381 13.59 21.75 12 21.75C10.4099 21.75 9.44873 21.0381 7.99734 19.9632C7.96295 19.9378 7.92827 19.9121 7.89331 19.8862C3.71371 16.7926 1.74012 13.344 1.33117 10.2948C0.92419 7.2603 2.08402 4.61922 4.14526 3.35485ZM11.8432 3.99339C11.84 3.99484 11.8406 3.99436 11.8446 3.99274C11.8441 3.99299 11.8436 3.9932 11.8432 3.99339ZM12.1553 3.99274C12.1594 3.99436 12.1599 3.99484 12.1567 3.99339C12.1563 3.9932 12.1558 3.99299 12.1553 3.99274ZM10.5152 4.66774C9.31873 3.76917 7.31189 3.17215 4.92957 4.63347C3.47144 5.52788 2.47341 7.52715 2.81786 10.0954C3.16035 12.649 4.8475 15.7656 8.7857 18.6805C10.3679 19.8516 10.9453 20.25 12 20.25C13.0546 20.25 13.6321 19.8516 15.2143 18.6805C19.1525 15.7656 20.8396 12.649 21.1821 10.0954C21.5265 7.52715 20.5285 5.52788 19.0704 4.63347C16.6881 3.17215 14.6812 3.76917 13.4847 4.66774L13.4638 4.68345C13.1934 4.88651 12.9612 5.06094 12.7754 5.18257C12.6788 5.24578 12.5719 5.31016 12.4609 5.36031C12.3556 5.4079 12.1938 5.46744 12 5.46744C11.8061 5.46744 11.6444 5.4079 11.539 5.36031C11.4281 5.31016 11.3211 5.24578 11.2246 5.18257C11.0388 5.06093 10.8065 4.88649 10.5361 4.68341L10.5152 4.66774Z" fill="#1F1F1F" fill-opacity="0.8"/>
</svg>
