<svg width="16" height="16" viewBox="0 0 16 16" fill="none" xmlns="http://www.w3.org/2000/svg">
<g clip-path="url(#clip0_spring_leaf)">
<path d="M1.33301 14C1.33301 11.9999 2.56641 10.4265 4.71986 9.99979C6.33329 9.67978 8.00005 8.66641 8.66675 7.99971M7.33317 13.3333C6.16247 13.3368 5.03321 12.9003 4.16933 12.1102C3.30546 11.3201 2.77009 10.2342 2.6694 9.06783C2.5687 7.90149 2.91005 6.7399 3.62573 5.81345C4.34141 4.88699 5.37914 4.26335 6.53312 4.06621C10.3333 3.33285 11.3334 2.98617 12.6668 1.33276C13.3335 2.66615 14.0002 4.11955 14.0002 6.66632C14.0002 10.3331 10.8134 13.3333 7.33317 13.3333Z" stroke="#10B981" stroke-width="2" stroke-linecap="round"/>
</g>
<defs>
<clipPath id="clip0_spring_leaf">
<rect width="16" height="16" fill="white"/>
</clipPath>
</defs>
</svg>
