<svg width="24" height="24" viewBox="0 0 24 24" fill="none" xmlns="http://www.w3.org/2000/svg">
<path fill-rule="evenodd" clip-rule="evenodd" d="M9.06116 1.75C8.46306 1.74998 7.95594 1.74997 7.53828 1.79463C7.09378 1.84217 6.68391 1.9455 6.3013 2.19415C5.91869 2.4428 5.6578 2.77537 5.43383 3.16225C5.22338 3.52579 5.01745 3.98918 4.77455 4.53575L1.81471 11.1954C1.64648 11.5739 1.81695 12.0171 2.19546 12.1854C2.57397 12.3536 3.0172 12.1831 3.18542 11.8046L6.12967 5.18005C6.39238 4.58896 6.56646 4.19971 6.732 3.91377C6.8885 3.64342 7.00424 3.52625 7.11867 3.45189C7.2331 3.37752 7.38718 3.31934 7.69778 3.28613C8.02631 3.25099 8.45271 3.25 9.09956 3.25H10.7499V4.75001L10.4551 4.75C10.0223 4.74995 9.62549 4.74991 9.30268 4.79331C8.9472 4.8411 8.57147 4.95355 8.26245 5.26257C7.95342 5.57159 7.84098 5.94732 7.79318 6.3028C7.74978 6.62561 7.74983 7.02244 7.74988 7.45526V9.54476C7.74983 9.97757 7.74978 10.3744 7.79318 10.6972C7.84098 11.0527 7.95342 11.4284 8.26245 11.7374C8.55621 12.0312 8.91025 12.1473 9.24988 12.1991V20.75H7.49988C7.08566 20.75 6.74988 21.0858 6.74988 21.5C6.74988 21.9142 7.08566 22.25 7.49988 22.25H15.4999C15.9141 22.25 16.2499 21.9142 16.2499 21.5C16.2499 21.0858 15.9141 20.75 15.4999 20.75H13.7499V12.1991C14.0895 12.1473 14.4436 12.0312 14.7373 11.7374C15.0311 11.4437 15.1472 11.0896 15.199 10.75H17.7499V12.5C17.7499 12.9142 18.0857 13.25 18.4999 13.25H21.4999C21.9141 13.25 22.2499 12.9142 22.2499 12.5V10C22.2499 7.92893 20.5709 6.25 18.4999 6.25H15.199C15.1472 5.91038 15.0311 5.55633 14.7373 5.26257C14.4283 4.95355 14.0526 4.8411 13.6971 4.79331C13.3743 4.74991 12.9774 4.74995 12.5446 4.75L12.2499 4.75001V3.25H14.5001C14.9143 3.25 15.2501 2.91422 15.2501 2.5C15.2501 2.08579 14.9143 1.75 14.5001 1.75H9.06116ZM15.2499 7.75V9.25H18.4999C18.9141 9.25 19.2499 9.58579 19.2499 10V11.75H20.7499V10C20.7499 8.75736 19.7425 7.75 18.4999 7.75H15.2499ZM13.72 6.50267C13.7473 6.70568 13.7497 6.986 13.7499 7.44672V9.55329C13.7497 10.014 13.7473 10.2943 13.72 10.4973C13.707 10.5939 13.6917 10.6423 13.6827 10.664C13.6807 10.6691 13.679 10.6724 13.678 10.6743L13.6766 10.6768L13.6742 10.6781C13.6723 10.6792 13.669 10.6808 13.6639 10.6828C13.6421 10.6918 13.5938 10.7071 13.4972 10.7201C13.2942 10.7474 13.0139 10.7499 12.5532 10.75H10.4466C9.98587 10.7499 9.70556 10.7474 9.50255 10.7201C9.40599 10.7071 9.35763 10.6918 9.33585 10.6828L9.32914 10.6799L9.32556 10.6781L9.32312 10.6768L9.32175 10.6743L9.32018 10.6712L9.31704 10.664C9.30808 10.6423 9.29279 10.5939 9.27981 10.4973C9.25148 10.2866 9.24989 9.99262 9.24989 9.50001V7.50001C9.24989 7.0074 9.25148 6.71339 9.27981 6.50267C9.29279 6.40611 9.30808 6.35775 9.31704 6.33597C9.31912 6.33093 9.32074 6.32761 9.32175 6.32568L9.32312 6.32325L9.32556 6.32187C9.32749 6.32086 9.3308 6.31924 9.33585 6.31717C9.35763 6.30821 9.40599 6.29291 9.50255 6.27993C9.71327 6.2516 10.0073 6.25001 10.4999 6.25001H12.4999C12.9925 6.25001 13.2865 6.2516 13.4972 6.27993C13.5938 6.29291 13.6421 6.30821 13.6639 6.31717C13.669 6.31924 13.6723 6.32086 13.6742 6.32187L13.6766 6.32325L13.678 6.32568C13.679 6.32761 13.6807 6.33093 13.6827 6.33597C13.6917 6.35775 13.707 6.40611 13.72 6.50267ZM10.7499 12.25V20.75H12.2499V12.25H10.7499Z" fill="#1F1F1F" fill-opacity="0.8"/>
<path fill-rule="evenodd" clip-rule="evenodd" d="M20.5581 14.9991L19.9999 15.5C20.5581 14.9991 20.5588 14.9999 20.5588 14.9999L20.5601 15.0014L20.5644 15.0061L20.579 15.0226C20.5914 15.0367 20.609 15.0568 20.6311 15.0822C20.6752 15.1332 20.7374 15.2059 20.8117 15.2955C20.9595 15.4739 21.1584 15.7228 21.3588 16.0015C21.5572 16.2774 21.7681 16.5975 21.9324 16.9166C22.0841 17.2116 22.2499 17.6053 22.2499 18C22.2499 19.2426 21.2425 20.25 19.9999 20.25C18.7572 20.25 17.7499 19.2426 17.7499 18C17.7499 17.6053 17.9156 17.2116 18.0674 16.9166C18.2317 16.5975 18.4425 16.2774 18.641 16.0015C18.8414 15.7228 19.0402 15.4739 19.1881 15.2955C19.2623 15.2059 19.3245 15.1332 19.3687 15.0822C19.3907 15.0568 19.4084 15.0367 19.4208 15.0226L19.4354 15.0061L19.4396 15.0014L19.4417 14.9991C19.5839 14.8406 19.7869 14.75 19.9999 14.75C20.2129 14.75 20.4158 14.8406 20.5581 14.9991ZM19.9999 16.6859C19.9533 16.7475 19.906 16.8116 19.8588 16.8772C19.6822 17.1227 19.5181 17.3759 19.4011 17.6031C19.3429 17.7162 19.3021 17.8119 19.2769 17.8886C19.2532 17.9608 19.2503 17.9956 19.2499 17.9997C19.2499 18.414 19.5857 18.75 19.9999 18.75C20.4141 18.75 20.7499 18.4142 20.7499 18C20.7495 17.9958 20.7465 17.9608 20.7228 17.8886C20.6977 17.8119 20.6569 17.7162 20.5987 17.6031C20.4817 17.3759 20.3175 17.1227 20.141 16.8772C20.0938 16.8116 20.0464 16.7475 19.9999 16.6859Z" fill="#1F1F1F" fill-opacity="0.8"/>
</svg>
