<svg width="263" height="137" viewBox="0 0 263 137" fill="none" xmlns="http://www.w3.org/2000/svg">
<path d="M0.453546 58.7547C-0.0464538 58.5547 -0.246466 59.2547 0.253534 59.4547C0.753534 59.6547 0.953546 58.9547 0.453546 58.7547C-0.0464538 58.5547 -0.246466 59.2547 0.253534 59.4547C0.753534 59.6547 0.953546 58.9547 0.453546 58.7547Z" fill="#346E3C" fill-opacity="0.55"/>
<path d="M19.2535 67.0547C22.9535 66.8547 26.6535 66.5547 30.2535 66.1547C34.1535 65.6547 37.9535 65.0547 41.7535 64.0547C45.4535 63.1547 49.0535 61.9547 52.5535 60.3547C55.7535 58.8547 58.8535 57.0547 61.4535 54.6547C63.9535 52.4547 65.9535 49.6547 67.1535 46.6547C68.5535 43.2547 68.8535 39.4546 68.5535 35.7546C68.0535 30.8546 66.4535 26.1547 64.3535 21.6547C63.7535 20.3547 63.1535 19.0546 62.4535 17.7546C62.4535 17.5546 62.2535 17.4546 62.1535 17.2546C62.0535 17.0546 61.9535 16.8546 61.8535 16.7546C62.4535 18.3546 62.7535 20.0547 62.9535 21.6547C63.4535 25.4547 63.2535 29.4547 62.2535 33.1547C60.7535 38.3547 57.6535 42.8547 53.5535 46.3547C47.0535 51.7547 38.7535 54.6547 30.6535 56.3547C24.5535 57.6547 18.2535 58.3547 12.0535 58.6547C10.2535 58.6547 8.35347 58.8547 6.55347 58.8547C5.65347 58.8547 4.75349 58.8547 3.75349 58.8547L1.4535 58.8547C1.2535 58.8547 0.753471 58.7547 0.553474 58.8547C0.553474 58.8547 0.553497 58.8547 0.453499 58.8547C0.453499 58.8547 0.453499 59.1546 0.453499 59.2546V63.8547C0.453499 64.4547 0.453499 66.6547 0.453499 66.6547C1.2535 66.6547 2.55352 66.8547 3.35352 66.8547C5.55352 66.9547 7.65352 67.0547 9.85352 67.0547C12.9535 67.0547 16.1535 67.0547 19.2535 66.9547V67.0547ZM61.8535 17.2546C61.8535 17.2546 61.8535 17.0547 61.7535 16.9547C61.7535 16.9547 61.7535 17.1546 61.8535 17.2546ZM0.853523 61.6547V60.4547C0.853523 60.0547 0.75351 60.0547 1.15351 59.9547C1.65351 59.9547 2.25349 59.9547 2.75349 59.9547L4.25349 59.9547C5.25349 59.9547 6.25348 59.9547 7.25348 59.9547C13.9535 59.8547 20.5535 59.3546 27.1535 58.2546C35.8535 56.7546 44.8535 54.2547 52.1535 48.9547C56.6535 45.6547 60.3535 41.2547 62.2535 35.9547C63.5535 32.1547 64.0535 28.0547 63.6535 23.9547C63.4535 22.0547 63.1535 20.0546 62.4535 18.2546C64.6535 22.5546 66.4535 27.1547 67.4535 31.8547C68.1535 35.6547 68.2535 39.6547 67.2535 43.3547C66.3535 46.5547 64.6535 49.5547 62.4535 51.9547C60.1535 54.4547 57.2535 56.4547 54.2535 58.0547C50.9535 59.8547 47.4535 61.1547 43.8535 62.1547C40.0535 63.2547 36.2535 64.0547 32.4535 64.5547C28.7535 65.1547 24.9535 65.4547 21.2535 65.6547C17.9535 65.8547 14.6535 65.9547 11.3535 65.9547C8.05352 65.9547 6.45348 65.9546 4.05347 65.7546C3.05347 65.7546 1.9535 65.5547 0.953499 65.5547V61.3547L0.853523 61.6547Z" fill="#346E3C" fill-opacity="0.55"/>
<path d="M19.2536 67.4546C31.0536 66.9546 43.6536 65.4546 54.3536 59.9546C59.0536 57.5546 63.3536 54.2547 66.0536 49.6547C68.7536 45.0547 69.4536 39.2546 68.5536 33.8546C67.5536 27.6546 64.8536 22.2547 62.0536 16.6547C61.8536 16.2547 61.2536 16.5546 61.3536 16.9546C63.6536 23.4546 63.1536 31.3547 60.0536 37.5547C57.1536 43.2547 52.1536 47.5547 46.5536 50.5547C40.9536 53.5547 34.3536 55.3547 27.9536 56.5547C20.8536 57.8547 13.5536 58.4547 6.35363 58.5547C4.55363 58.5547 2.85358 58.6547 1.05357 58.5547C0.353577 58.5547 -0.0463791 58.5546 -0.146378 59.2546C-0.346375 60.8546 -0.146378 62.7546 -0.146378 64.3546C-0.146378 65.1546 -0.346405 66.2546 -0.046402 66.9546C-0.046402 67.0546 0.153587 67.1547 0.253586 67.1547C6.55359 67.6547 12.8536 67.6546 19.0536 67.4546C19.5536 67.4546 19.5536 66.6547 19.0536 66.6547C14.7536 66.8547 10.4536 66.8547 6.15361 66.6547C5.15361 66.6547 4.15361 66.6547 3.15361 66.5547C2.45361 66.5547 1.35358 66.6546 0.753586 66.3546C0.453583 66.2546 0.653572 66.3546 0.553574 65.9546C0.553574 65.6546 0.553574 65.3547 0.553574 65.1547V60.2546C0.553574 60.0546 0.553574 59.1546 0.553574 59.2546C0.553574 59.2546 1.05362 59.2546 1.35362 59.2546C3.25362 59.2546 5.25361 59.2546 7.15361 59.2546C11.3536 59.1546 15.6536 58.9546 19.8536 58.4546C33.8536 56.9546 50.6536 53.2546 59.0536 40.7546C63.7536 33.8546 64.9536 24.5547 62.1536 16.6547L61.4536 16.9546C63.7536 21.6546 66.1536 26.1546 67.3536 31.2546C68.6536 36.8546 68.6536 42.8547 66.0536 48.0547C61.0536 57.8547 49.2536 62.0547 39.1536 64.1547C32.6536 65.5547 25.9536 66.2547 19.3536 66.5547C18.8536 66.5547 18.8536 67.3546 19.3536 67.3546L19.2536 67.4546Z" fill="#346E3C" fill-opacity="0.55"/>
<path d="M62.2535 17.0547C62.2535 17.0547 62.2535 16.8547 62.1535 16.8547L61.4535 17.1547C61.4535 17.1547 61.4535 17.3547 61.5535 17.4547C61.5535 17.4547 61.5535 17.4547 61.5535 17.5547C61.5535 17.6547 61.5535 17.5547 61.6535 17.5547C61.6535 17.5547 61.6535 17.5547 61.8535 17.5547C61.8535 17.5547 61.8535 17.5547 61.9535 17.5547C61.9535 17.5547 62.1535 17.4547 62.1535 17.3547V17.2547C62.1535 17.2547 62.1535 17.1547 62.1535 17.0547C62.1535 17.0547 62.1535 16.8547 62.0535 16.7547C62.0535 16.7547 62.0535 16.7547 62.0535 16.6547C62.0535 16.5547 62.0535 16.6547 61.9535 16.6547C61.8535 16.6547 61.7535 16.6547 61.7535 16.6547C61.7535 16.6547 61.7535 16.6547 61.7535 16.7547C61.7535 16.7547 61.7535 16.8547 61.7535 16.9547C61.7535 16.9547 61.7535 17.0547 61.7535 17.1547C61.7535 17.1547 61.7535 17.1547 61.7535 17.2547C61.7535 17.2547 61.7535 17.2547 61.7535 17.3547C61.7535 17.4547 61.7535 17.3547 61.8535 17.3547C61.8535 17.3547 61.8535 17.3547 62.0535 17.3547C62.0535 17.3547 62.0535 17.3547 62.1535 17.3547C62.1535 17.3547 62.3535 17.2547 62.3535 17.1547V17.0547C62.3535 17.0547 62.3535 16.9547 62.3535 16.8547L62.2535 17.0547Z" fill="#346E3C" fill-opacity="0.55"/>
<path d="M1.25343 61.6547C1.25343 61.4547 1.15343 60.6546 1.25343 60.4546C1.45343 60.0546 0.853424 60.4546 1.55342 60.3546C2.15342 60.2546 2.85342 60.3546 3.55342 60.3546C5.25342 60.3546 7.05344 60.3546 8.75344 60.3546C11.9534 60.3546 15.2534 60.0546 18.5534 59.7546C24.5534 59.1546 30.6534 58.2547 36.5534 56.6547C46.9534 53.7547 57.6535 48.0547 62.1535 37.6547C64.6535 31.7547 65.1534 24.2546 62.9534 18.2546L62.2534 18.5547C65.1534 24.2547 67.5535 30.5547 67.6535 37.0547C67.7535 43.5547 65.1535 49.4547 60.3535 53.6547C55.5535 57.8547 49.3534 60.4547 43.2534 62.1547C36.6534 63.9547 29.8535 64.9546 23.1535 65.4546C19.3535 65.7546 15.6535 65.8546 11.8535 65.8546C8.05347 65.8546 4.65345 65.5546 0.953445 65.4546L1.35347 65.8546V61.7546C1.35347 61.2546 0.553421 61.2546 0.553421 61.7546V65.8546C0.553421 66.0546 0.753448 66.2546 0.953445 66.2546C4.45345 66.2546 7.85347 66.6547 11.3535 66.6547C14.8535 66.6547 18.5535 66.5546 22.1535 66.2546C29.1535 65.7546 36.2534 64.8546 42.9534 62.9546C49.0534 61.2546 55.2535 58.8546 60.1535 54.7546C64.8535 50.8546 67.7534 45.4546 68.2534 39.3546C68.8534 31.9546 66.0534 24.6547 62.7534 18.1547C62.5534 17.7547 61.9534 18.0546 62.0534 18.4546C64.1534 24.2546 63.7534 31.3547 61.4534 37.0547C59.2534 42.3547 55.2534 46.5546 50.5534 49.7546C40.5534 56.3546 27.8534 58.4546 16.0534 59.3546C12.4534 59.6546 8.85344 59.7546 5.25344 59.7546C4.45344 59.7546 3.55344 59.7546 2.75343 59.7546C2.25343 59.7546 1.55342 59.5546 1.05342 59.7546C0.153419 60.0546 0.553421 60.9546 0.553421 61.7546C0.553421 62.5546 1.35347 62.2546 1.35347 61.7546L1.25343 61.6547Z" fill="#346E3C" fill-opacity="0.55"/>
<path d="M24.354 66.7546C38.654 70.0546 52.9539 74.4546 66.0539 81.2546C74.8539 85.7546 83.1539 91.4546 89.854 98.7546C94.554 103.755 98.3539 109.455 100.654 115.955C102.154 120.155 103.054 124.655 103.254 129.155C103.254 130.555 103.254 131.955 103.154 133.255C103.154 133.855 102.854 134.555 102.854 135.155C102.854 135.255 103.554 136.155 103.454 136.155C103.854 135.755 104.254 135.355 104.654 134.955C105.654 133.955 106.554 132.855 107.354 131.655C108.554 130.055 109.554 128.355 110.454 126.555C111.454 124.455 112.254 122.255 112.754 119.955C113.254 117.355 113.354 114.755 113.054 112.055C112.654 109.055 111.654 106.055 110.254 103.355C108.454 99.8546 106.154 96.7546 103.454 93.8546C99.9539 90.1546 95.8539 87.0546 91.5539 84.2546C85.7539 80.4546 79.4539 77.3547 73.0539 74.6547C64.5539 70.9547 55.754 67.9546 46.854 65.3546C44.354 64.5546 41.7539 63.8547 39.2539 63.1547C39.5539 63.1547 39.5539 64.1547 39.854 64.1547C49.254 66.7547 58.4539 69.6547 67.5539 73.1547C74.4539 75.8547 81.1539 78.8547 87.5539 82.5547C92.3539 85.2547 96.8539 88.3547 101.054 91.9547C104.154 94.6547 106.954 97.7546 109.054 101.255C109.054 101.255 109.154 101.455 109.254 101.555C109.354 101.755 109.454 101.955 109.554 102.155C109.754 102.555 109.954 102.955 110.154 103.255C110.454 103.955 110.854 104.755 111.054 105.455C111.554 106.855 111.954 108.255 112.254 109.655C112.754 112.255 112.754 114.855 112.254 117.455C111.854 119.755 111.254 122.055 110.254 124.155C109.454 126.055 108.454 127.755 107.354 129.455C106.454 130.755 105.554 131.955 104.554 133.055C104.054 133.555 103.454 134.155 102.954 134.655L103.554 135.655C103.554 135.155 103.754 134.755 103.754 134.255C103.954 132.955 103.954 131.755 103.954 130.455C103.954 128.555 103.754 126.555 103.454 124.655C103.054 122.155 102.454 119.755 101.654 117.355C100.654 114.455 99.4539 111.755 98.0539 109.055C96.2539 105.855 94.3539 102.855 92.0539 100.055C89.3539 96.6547 86.2539 93.6546 82.9539 90.8546C78.9539 87.4546 74.5539 84.5547 70.0539 81.9547C64.5539 78.7547 58.6539 76.0547 52.7539 73.6547C45.4539 70.7547 37.9539 68.4547 30.354 66.5547C28.254 66.0547 26.0539 65.4547 23.9539 65.0547C24.2539 65.0547 24.2539 66.0547 24.5539 66.0547L24.354 66.7546Z" fill="#346E3C" fill-opacity="0.55"/>
<path d="M24.2538 67.1547C39.4538 70.6547 54.5538 75.3547 68.2538 82.9547C80.9538 89.9547 93.0537 99.7546 99.0537 113.255C100.854 117.455 102.154 121.955 102.554 126.455C102.754 128.755 102.854 131.055 102.554 133.355C102.554 133.955 102.154 134.855 102.254 135.455C102.254 135.855 102.754 136.155 102.854 136.555C102.854 136.855 103.254 136.855 103.454 136.755C108.854 131.655 112.754 124.255 113.154 116.855C113.554 109.455 110.354 102.555 105.754 96.8546C100.954 90.8546 94.4538 86.1546 87.7538 82.2546C81.0538 78.3546 73.5537 74.9547 66.0537 72.0547C57.1537 68.6547 48.1538 65.8546 38.9538 63.2546C38.6538 63.2546 38.2537 63.6546 38.5537 63.8546C39.0537 64.2546 38.8537 64.7547 39.5537 65.0547C40.8537 65.5547 42.3538 65.8546 43.7538 66.2546C46.4538 67.0546 49.1538 67.8546 51.8538 68.7546C57.1538 70.4546 62.4538 72.2546 67.6538 74.2546C77.7538 78.2546 87.8538 82.9547 96.4538 89.5547C101.154 93.1547 105.354 97.2546 108.454 102.255C108.754 102.655 109.354 102.255 109.154 101.855C109.154 101.855 109.154 101.855 109.154 101.755C108.854 101.355 108.254 101.755 108.454 102.155C111.454 107.655 112.554 114.055 111.054 120.155C109.654 125.755 106.454 131.155 102.254 135.055C102.154 135.155 102.154 135.355 102.254 135.555L102.854 136.555C103.054 136.855 103.454 136.755 103.554 136.555C104.954 129.355 103.254 121.355 100.454 114.655C97.6538 107.955 93.2538 101.555 88.1538 96.3546C77.4538 85.4546 63.5538 78.2547 49.3538 72.9547C40.9538 69.8547 32.3538 67.4547 23.6538 65.4547C23.3538 65.4547 22.9538 65.8547 23.2538 66.0547C23.5538 66.2547 23.5538 66.8547 23.8538 67.0547C24.2538 67.3547 24.7538 66.8547 24.3538 66.5547C24.0538 66.3547 24.0538 65.7547 23.7538 65.5547L23.3538 66.1547C38.1538 69.5547 52.7538 74.0546 66.1538 81.2546C79.1538 88.1546 90.8538 97.7547 97.7538 110.955C101.754 118.455 104.354 127.855 102.754 136.355H103.454L102.854 135.255V135.755C107.154 131.655 110.554 125.855 111.954 120.055C113.354 113.855 112.254 107.455 109.254 101.855L108.554 102.255C108.554 102.255 108.554 102.255 108.554 102.355L109.254 101.955C103.754 93.2547 95.2538 87.0547 86.3538 82.1547C76.6538 76.7547 66.3538 72.6546 55.8538 69.2546C52.7538 68.2546 49.6537 67.2546 46.5537 66.3546C45.0537 65.9546 43.5538 65.4547 42.1538 65.0547C41.4538 64.8547 40.3538 64.7546 39.7538 64.2546C39.4538 63.9546 39.4537 63.6546 39.0537 63.3546L38.6538 63.9547C53.8538 68.1547 69.1538 73.1547 83.1538 80.5547C89.7538 84.0547 96.2538 88.2547 101.654 93.5547C107.054 98.8547 111.354 105.455 112.154 112.855C113.054 121.455 108.954 130.355 102.754 136.255L103.354 136.455C103.354 136.055 102.954 135.855 102.854 135.555C102.654 135.055 103.054 134.055 103.054 133.555C103.254 131.555 103.254 129.555 103.054 127.555C102.754 123.555 101.854 119.655 100.454 115.855C97.9538 109.055 93.7538 102.955 88.7538 97.7546C78.1538 86.7546 64.2537 79.5546 50.0537 74.2546C41.5537 71.0546 32.8538 68.6547 23.9538 66.6547C23.4538 66.5547 23.2538 67.2546 23.7538 67.3546L24.2538 67.1547Z" fill="#346E3C" fill-opacity="0.55"/>
<path d="M53.3541 60.0547C61.5541 59.7547 69.7541 58.9547 77.954 57.6547C84.954 56.5547 91.8541 54.9546 98.6541 52.8546C104.554 51.0546 110.254 48.8546 115.854 46.3546C120.654 44.1546 125.354 41.5547 129.754 38.6547C133.654 36.1547 137.354 33.4546 140.854 30.3546C143.854 27.8546 146.654 25.0547 149.254 22.1547C151.454 19.7547 153.454 17.1547 155.354 14.5547C156.854 12.5547 158.154 10.3547 159.354 8.15466C160.154 6.65466 160.954 5.15466 161.654 3.55466C161.954 2.85466 162.354 2.15465 162.554 1.45465L161.954 0.454651C162.054 0.954651 162.154 1.45466 162.154 2.05466C162.254 3.45466 162.354 4.95464 162.154 6.35464C162.154 8.55464 161.754 10.6546 161.354 12.8546C160.754 15.5546 159.854 18.2546 158.754 20.8546C157.354 23.9546 155.654 26.9546 153.554 29.7546C151.054 33.1546 148.154 36.2547 145.054 38.9547C141.154 42.3547 136.854 45.2546 132.354 47.8546C126.654 51.0546 120.654 53.6546 114.554 55.8546C106.854 58.6546 98.954 60.7546 90.954 62.3546C80.954 64.4546 70.8541 65.8546 60.6541 66.7546C57.8541 67.0546 55.054 67.2547 52.254 67.4547C52.454 67.4547 52.6541 68.4547 52.8541 68.4547C63.5541 67.7547 74.2541 66.5547 84.8541 64.6547C93.3541 63.1547 101.754 61.1547 110.054 58.5547C116.654 56.4547 123.054 53.9546 129.154 50.8546C134.054 48.3546 138.654 45.4547 142.954 42.1547C146.454 39.4547 149.654 36.3547 152.454 32.9547C154.754 30.1547 156.754 27.1547 158.354 23.9547C159.654 21.3547 160.754 18.5546 161.454 15.7546C162.054 13.4546 162.454 11.1546 162.654 8.85464C162.754 7.25464 162.854 5.55465 162.654 3.95465C162.654 3.25465 162.654 2.35466 162.354 1.65466C162.354 1.65466 162.354 1.65466 162.354 1.55466C162.354 1.35466 161.654 0.754657 161.754 0.554657C161.554 1.05466 161.354 1.55466 161.154 2.05466C160.554 3.45466 159.954 4.75466 159.254 6.05466C158.154 8.15466 156.954 10.0547 155.654 12.0547C153.954 14.5547 152.054 17.0546 150.154 19.3546C147.754 22.2546 145.054 24.9547 142.354 27.4547C139.154 30.4547 135.654 33.1546 132.054 35.7546C127.854 38.6546 123.354 41.3547 118.854 43.6547C113.554 46.3547 108.154 48.5546 102.554 50.4547C96.054 52.6547 89.4541 54.4546 82.6541 55.7546C74.8541 57.2546 67.0541 58.2546 59.1541 58.8546C57.0541 58.9546 54.854 59.1546 52.754 59.2546C52.954 59.2546 53.1541 60.2546 53.3541 60.2546V60.0547Z" fill="#346E3C" fill-opacity="0.55"/>
<path d="M53.3543 60.4547C71.3543 59.6547 89.3543 56.9547 106.254 50.6547C123.154 44.3547 137.554 35.4547 149.254 22.6547C152.454 19.1547 155.354 15.3546 157.954 11.2546C159.254 9.15464 160.554 6.95464 161.554 4.75464C161.954 3.95464 162.354 3.05464 162.654 2.25464C162.954 1.35464 162.654 1.15464 162.254 0.254637C162.054 -0.145363 161.454 0.154656 161.554 0.554656C162.354 5.15466 161.754 10.0547 160.554 14.5547C159.354 19.0547 157.554 23.1546 155.054 26.9546C150.254 34.4547 143.354 40.5546 135.854 45.3546C120.354 55.1546 102.054 60.2546 84.1543 63.3546C73.5543 65.2546 62.9543 66.3547 52.1543 67.1547C51.7543 67.1547 51.6543 67.6546 51.9543 67.8546C52.2543 68.0546 52.1543 68.6546 52.5543 68.8546C52.7543 68.9546 53.2543 68.8546 53.4543 68.8546C54.1543 68.8546 54.9543 68.7547 55.6543 68.6547C58.2543 68.4547 60.8543 68.2547 63.4543 67.9547C68.5543 67.4547 73.5543 66.8547 78.5543 66.0547C88.7543 64.5547 98.7543 62.4546 108.654 59.3546C126.554 53.8546 145.354 44.8546 155.954 28.7546C158.954 24.2546 161.154 19.2547 162.254 13.9546C162.854 11.3547 163.154 8.75466 163.154 6.05466C163.154 4.75466 163.154 3.45464 162.954 2.25464C162.954 1.95464 162.954 1.55464 162.754 1.25464C162.654 0.954637 162.254 0.654643 162.254 0.354643C162.254 -0.0453566 161.654 -0.145363 161.554 0.254637C160.154 4.05464 158.054 7.65466 155.854 11.0547C153.654 14.4547 150.954 17.8547 148.154 21.0547C142.554 27.2547 136.054 32.6546 129.054 37.2546C114.854 46.4546 98.6543 52.1546 82.1543 55.3546C72.4543 57.2546 62.6543 58.2547 52.8543 58.6547C52.4543 58.6547 52.3543 59.1546 52.6543 59.3546C52.9543 59.5546 52.8543 60.1546 53.2543 60.3546C53.6543 60.6546 54.0543 59.9546 53.6543 59.7546C53.3543 59.5546 53.3543 58.9546 53.0543 58.7546L52.8543 59.4547C70.4543 58.7547 88.0543 56.0547 104.654 50.0547C121.254 44.0547 135.254 35.6547 146.954 23.5547C150.154 20.1547 153.154 16.5546 155.754 12.7546C158.354 8.95464 160.754 4.95466 162.354 0.654662L161.654 0.654662C161.654 1.05466 162.054 1.25464 162.254 1.75464C162.654 2.65464 162.554 4.25464 162.554 5.25464C162.554 7.75464 162.354 10.2546 161.954 12.7546C161.054 17.5546 159.354 22.0546 156.954 26.2546C152.254 34.3546 145.254 40.8547 137.454 45.9547C121.354 56.4547 102.054 61.5546 83.2543 64.7546C77.6543 65.7546 72.0543 66.4547 66.4543 67.0547C63.6543 67.3547 60.9543 67.6546 58.1543 67.8546C56.7543 67.9546 55.3543 68.0547 54.0543 68.1547C53.8543 68.1547 53.3543 68.2547 53.2543 68.1547C53.2543 68.1547 53.2543 67.8546 53.0543 67.7546C52.8543 67.5546 52.8543 67.3546 52.6543 67.2546L52.4543 67.9547C71.8543 66.5546 91.3543 63.9547 109.954 58.0547C126.954 52.6547 144.554 44.0546 155.054 28.9546C157.854 24.8546 160.054 20.3547 161.454 15.5547C162.854 10.7547 163.454 5.45466 162.654 0.554656L161.954 0.854643C162.054 1.05464 162.454 1.45464 162.454 1.75464C162.454 2.15464 162.054 2.85464 161.854 3.25464C161.454 4.25464 160.954 5.15466 160.454 6.05466C159.454 7.95466 158.454 9.75466 157.254 11.5547C154.954 15.1547 152.354 18.5547 149.554 21.6547C143.954 27.9547 137.554 33.4547 130.454 38.0547C116.154 47.4547 99.7543 53.3547 82.9543 56.5547C73.2543 58.4547 63.3543 59.4546 53.4543 59.8546C52.9543 59.8546 52.9543 60.6547 53.4543 60.6547L53.3543 60.4547Z" fill="#346E3C" fill-opacity="0.55"/>
<path d="M64.5537 72.4547C79.1537 71.3547 93.8537 71.7547 108.254 74.4547C119.454 76.5547 130.454 80.0547 140.654 85.0547C148.554 88.9547 156.054 93.6547 162.854 99.2547C167.554 103.155 171.954 107.355 175.754 112.055C177.454 114.055 179.154 116.455 180.454 118.555C180.454 118.655 180.454 118.455 180.354 118.355C180.354 118.455 180.554 118.555 180.554 118.755C179.954 117.055 179.054 115.455 178.154 113.855C175.754 109.555 173.154 105.555 170.054 101.755C165.554 96.1547 160.454 91.1547 154.754 86.7547C147.254 80.9547 138.954 76.1547 130.154 72.5547C118.854 67.8547 106.954 64.9547 94.8537 63.3547C93.1537 63.1547 91.4537 62.9547 89.6537 62.7547C89.8537 62.7547 90.0537 63.7547 90.2537 63.7547C102.554 64.9547 114.754 67.5547 126.254 71.8547C135.254 75.2547 143.854 79.6547 151.754 85.1547C157.754 89.4547 163.254 94.3547 168.154 99.8547C171.454 103.655 174.654 107.855 177.154 112.155C178.154 113.855 179.054 115.855 179.954 117.655L180.154 118.055C179.054 116.155 177.754 114.355 176.354 112.655C172.854 108.155 168.854 104.155 164.654 100.355C158.254 94.7547 151.254 89.9547 143.754 85.9547C133.954 80.7547 123.354 76.9547 112.454 74.4547C98.4537 71.3547 84.0537 70.3547 69.7537 71.0547C67.7537 71.1547 65.7537 71.2547 63.7537 71.4547C63.9537 71.4547 64.1537 72.5547 64.3537 72.4547H64.5537Z" fill="#346E3C" fill-opacity="0.55"/>
<path d="M64.5537 72.7547C82.0537 71.3547 99.8537 72.3547 116.954 76.6547C133.154 80.7547 148.454 88.0547 161.554 98.5547C165.054 101.455 168.454 104.455 171.554 107.755C174.654 111.055 177.454 114.855 180.154 118.655C180.454 119.055 181.054 118.655 180.754 118.255C180.754 118.255 180.754 118.155 180.654 118.055L180.054 118.455C180.054 118.555 180.254 118.655 180.254 118.855C180.454 119.255 181.054 118.955 180.954 118.555C179.654 115.155 177.754 111.955 175.754 108.855C173.754 105.755 171.754 103.055 169.554 100.355C164.954 94.8547 159.754 89.8547 153.954 85.5547C142.354 76.7547 128.854 70.6547 114.754 66.7547C106.554 64.5547 98.1537 63.0547 89.7537 62.2547C89.3537 62.2547 89.2537 62.7547 89.5537 62.9547C89.7537 63.1547 89.7537 63.6547 89.9537 63.8547C90.2537 64.1547 90.8537 64.0547 91.2537 64.1547C93.3537 64.3547 95.3537 64.6547 97.4537 64.9547C101.154 65.4547 104.854 66.1547 108.554 66.9547C115.854 68.5547 123.154 70.7547 130.054 73.6547C143.554 79.2547 156.154 87.3547 166.154 98.1547C169.054 101.255 171.754 104.655 174.154 108.155C175.254 109.755 176.354 111.455 177.254 113.155C178.154 114.855 178.854 116.755 179.854 118.455C180.054 118.855 180.754 118.455 180.454 118.055C176.154 110.855 169.954 104.555 163.554 99.1547C157.154 93.7547 150.354 89.2547 143.054 85.3547C127.854 77.3547 110.954 72.9547 93.8537 71.3547C83.8537 70.4547 73.7537 70.4547 63.7537 71.2547C63.3537 71.2547 63.2537 71.7547 63.5537 71.9547C63.8537 72.1547 63.7537 72.7547 64.1537 72.9547C64.5537 73.2547 64.9537 72.5547 64.5537 72.3547C64.2537 72.1547 64.2537 71.5547 63.9537 71.3547L63.7537 72.0547C81.2537 70.6547 98.9537 71.5547 115.954 75.9547C132.054 80.0547 147.454 87.2547 160.454 97.6547C167.754 103.455 174.954 110.455 179.754 118.555L180.354 118.155C179.454 116.755 178.954 115.155 178.154 113.655C177.254 111.955 176.254 110.255 175.154 108.655C173.154 105.655 170.854 102.655 168.454 99.9547C163.654 94.4547 158.154 89.5547 152.254 85.2547C140.254 76.6547 126.354 70.7547 112.054 67.2547C107.954 66.2547 103.854 65.4547 99.6537 64.7547C97.6537 64.4547 95.5537 64.1547 93.5537 63.8547C93.0537 63.8547 92.6537 63.7547 92.1537 63.6547C91.6537 63.5547 90.7537 63.6547 90.3537 63.3547C90.1537 63.0547 90.1537 62.7547 89.8537 62.4547L89.6537 63.1547C118.254 66.0547 146.954 76.5547 166.554 98.3547C169.254 101.355 171.754 104.555 173.954 107.955C176.154 111.355 178.554 115.155 180.054 119.055L180.754 118.755C180.754 118.655 180.654 118.455 180.554 118.355C180.254 117.955 179.654 118.355 179.954 118.755C179.954 118.755 179.954 118.855 180.054 118.955L180.654 118.555C178.354 115.355 176.154 112.155 173.454 109.255C170.554 106.055 167.554 103.155 164.254 100.355C158.054 95.0547 151.254 90.4547 144.054 86.6547C128.854 78.6547 112.054 74.1547 95.0537 72.4547C84.8537 71.4547 74.5537 71.4547 64.3537 72.2547C63.8537 72.2547 63.8537 73.0547 64.3537 73.0547L64.5537 72.7547Z" fill="#346E3C" fill-opacity="0.55"/>
<path d="M93.3531 62.9547C95.1532 62.9547 96.9531 62.9547 98.6531 62.9547C103.053 62.9547 107.553 62.9547 111.953 63.0547C117.653 63.0547 123.453 63.1546 129.153 63.2546C134.853 63.3546 140.653 63.3547 146.353 63.4547L159.453 63.4547C161.453 63.5547 163.553 63.6547 165.653 63.5547C174.353 63.1547 183.153 63.5547 191.853 65.0547C199.253 66.2547 206.553 68.2547 213.553 70.9547C219.553 73.3547 225.353 76.2546 230.853 79.7546C235.553 82.7546 239.953 86.0546 244.053 89.7546C247.453 92.7546 250.553 96.0547 253.453 99.5547C255.553 102.055 257.553 104.755 259.353 107.455C259.953 108.355 260.553 109.255 261.053 110.155C261.053 110.155 261.053 110.255 261.153 110.355C261.153 110.355 261.153 110.355 261.253 110.555C261.353 110.755 261.453 110.955 261.553 111.155C261.753 111.655 261.553 111.355 261.153 111.155C259.353 110.255 257.453 109.455 255.653 108.755C252.053 107.455 248.353 106.355 244.653 105.555C239.853 104.455 235.053 104.055 230.153 103.555C221.753 102.755 213.553 100.555 205.653 97.8546C196.553 94.6546 187.753 90.5547 179.653 85.5547C175.553 83.0547 171.753 80.1546 167.953 77.2546C164.753 74.8546 161.253 72.9547 157.553 71.4547C150.453 68.6547 142.853 67.4547 135.253 67.0547C130.053 66.7547 124.753 66.9547 119.453 67.4547C118.653 67.4547 117.153 67.7546 116.453 67.8546C116.553 67.8546 117.653 68.7546 117.753 68.7546C123.153 67.8546 128.753 67.7547 134.253 67.9547C144.853 68.3547 155.953 70.2546 165.153 75.8546C167.753 77.4546 170.053 79.3547 172.453 81.1547C175.153 83.1547 177.953 85.0546 180.853 86.8546C186.653 90.3546 192.753 93.4547 198.953 96.0547C204.853 98.5547 210.953 100.555 217.153 102.155C222.753 103.555 228.353 104.355 234.053 104.955C240.453 105.555 246.853 106.855 253.053 108.755C256.153 109.755 259.153 110.855 262.053 112.355C262.153 112.355 262.353 112.455 262.453 112.555C261.653 110.955 260.653 109.355 259.653 107.755C257.353 104.155 254.753 100.755 251.953 97.5547C247.753 92.7547 243.153 88.3547 238.153 84.4547C231.853 79.5547 224.953 75.3547 217.553 72.0547C208.653 68.0547 199.153 65.3547 189.453 63.9547C183.853 63.1547 178.053 62.6547 172.353 62.6547C169.253 62.6547 166.153 62.8546 163.153 62.8546L150.153 62.8546C150.153 62.7546 127.953 62.5547 127.953 62.5547C120.653 62.5547 113.353 62.4546 105.953 62.3546C101.753 62.3546 97.5531 62.3546 93.3531 62.2546H92.7531C92.9531 62.2546 93.1532 63.2546 93.3531 63.2546V62.9547Z" fill="#346E3C" fill-opacity="0.55"/>
<path d="M93.3536 63.3546C105.654 63.4546 117.954 63.5546 130.154 63.7546C136.154 63.7546 142.254 63.8547 148.254 63.9547C154.254 64.0547 160.254 64.2547 166.254 63.9547C190.154 63.0547 214.154 68.6546 233.954 82.3546C239.354 86.1546 244.454 90.4546 249.054 95.2546C253.654 100.055 257.654 104.955 260.854 110.555C261.054 110.955 261.754 110.555 261.454 110.155L260.754 110.555C260.954 110.855 261.154 111.155 261.254 111.555L261.454 111.055C261.454 111.055 259.154 109.855 258.754 109.655C257.654 109.155 256.554 108.755 255.454 108.355C252.954 107.455 250.454 106.655 247.954 105.955C242.854 104.655 237.754 103.955 232.554 103.355C227.354 102.755 221.954 102.055 216.654 100.755C211.754 99.5546 206.854 97.9547 202.054 96.1547C192.554 92.5547 183.454 87.9547 175.154 82.1547C171.054 79.2547 167.254 75.9547 162.854 73.5547C158.454 71.1547 153.854 69.5547 149.054 68.5547C138.454 66.1547 126.954 65.8547 116.154 67.5547C115.754 67.5547 115.854 68.1546 116.154 68.2546C116.654 68.4546 116.954 69.0547 117.354 69.1547C117.554 69.1547 117.854 69.1547 118.154 69.1547C119.054 69.0547 119.954 68.9546 120.954 68.7546C123.654 68.4546 126.254 68.3546 128.954 68.3546C134.054 68.3546 139.154 68.5546 144.154 69.3546C148.854 70.0546 153.454 71.1547 157.854 72.9547C162.654 74.8547 166.654 77.5547 170.754 80.6547C178.854 86.8547 187.854 91.9547 197.254 95.9547C206.654 99.9547 217.054 103.255 227.554 104.655C233.354 105.455 239.154 105.855 244.954 107.055C250.754 108.355 256.754 110.155 262.054 112.855C262.354 113.055 262.754 112.655 262.554 112.355C260.154 107.255 256.554 102.555 252.954 98.3546C249.054 93.7546 244.854 89.5546 240.254 85.7546C231.354 78.3546 221.154 72.6546 210.254 68.7546C198.754 64.6546 186.554 62.5546 174.254 62.2546C171.154 62.2546 168.054 62.2546 165.054 62.3546C161.754 62.3546 158.454 62.3546 155.154 62.3546C148.754 62.3546 142.354 62.2547 135.854 62.1547C121.454 62.0547 107.154 61.8546 92.7536 61.7546C92.3536 61.7546 92.2536 62.2547 92.5536 62.4547C92.8536 62.6547 92.7536 63.2547 93.1536 63.4547C93.5536 63.7547 93.9536 63.0546 93.5536 62.8546C93.2536 62.6546 93.2536 62.0546 92.9536 61.8546L92.7536 62.5547C105.254 62.6547 117.854 62.7547 130.454 62.9547C136.654 62.9547 142.954 63.0547 149.154 63.1547C155.354 63.2547 161.854 63.3547 168.154 63.1547C192.254 62.3547 216.654 69.0547 236.054 83.5547C241.254 87.4547 246.154 91.8546 250.554 96.7546C254.954 101.655 259.154 106.955 262.054 112.855L262.554 112.355C253.454 107.555 242.954 105.555 232.754 104.555C221.854 103.455 211.354 100.755 201.154 96.7546C190.954 92.7546 182.054 87.9546 173.654 81.8546C169.554 78.9546 165.854 75.7547 161.254 73.6547C157.054 71.6547 152.454 70.2546 147.954 69.3546C142.654 68.3546 137.254 67.8546 131.754 67.7546C128.654 67.7546 125.554 67.7547 122.554 68.0547C121.254 68.1547 119.954 68.3547 118.554 68.4547C117.754 68.5547 117.654 68.4547 117.054 68.0547C116.854 67.9547 116.754 67.8546 116.554 67.7546V68.4547C126.554 66.8547 137.054 67.0547 146.954 68.9547C151.954 69.9547 156.854 71.4546 161.454 73.7546C166.054 76.0546 169.754 79.2547 173.754 82.1547C181.754 87.8547 190.554 92.4547 199.654 96.1547C209.054 99.9547 218.954 102.855 229.054 104.055C235.054 104.755 241.054 105.255 246.954 106.755C249.754 107.455 252.454 108.255 255.154 109.255C256.654 109.755 258.154 110.355 259.554 111.055C260.054 111.255 261.254 112.255 261.754 112.055C261.954 111.955 262.054 111.755 261.954 111.555C261.854 111.255 261.654 110.955 261.454 110.555C261.254 110.155 260.554 110.555 260.854 110.955L261.554 110.555C258.754 105.755 255.254 101.255 251.554 97.1547C247.554 92.7547 243.254 88.7547 238.554 85.1547C229.354 78.0547 218.954 72.5547 207.854 68.9547C196.454 65.2547 184.454 63.5547 172.454 63.4547C169.354 63.4547 166.354 63.6547 163.254 63.6547C160.154 63.6547 157.154 63.6547 154.154 63.6547C147.954 63.6547 141.754 63.5547 135.654 63.4547C121.554 63.3547 107.454 63.1547 93.4536 63.0547C92.9536 63.0547 92.9536 63.8546 93.4536 63.8546L93.3536 63.3546Z" fill="#346E3C" fill-opacity="0.55"/>
<path d="M262.154 111.855C258.354 107.855 253.954 104.355 249.654 100.955C240.254 93.7547 229.854 87.4547 218.654 83.4547C213.054 81.4547 207.154 80.3547 201.354 78.9547C196.454 77.7547 191.554 76.4547 186.654 75.0547C176.254 72.1547 165.854 69.3547 155.254 67.5547C141.954 65.2547 128.454 64.5547 115.054 65.0547C113.054 65.0547 109.254 65.3547 107.254 65.4547C107.354 65.4547 109.354 66.1547 109.554 66.0547C123.554 65.2547 137.554 65.5547 151.454 67.6547C162.254 69.2547 172.954 71.9547 183.454 74.8547C188.354 76.2547 193.354 77.6547 198.254 78.8547C200.754 79.4547 203.254 80.1547 205.754 80.6547C208.654 81.2547 211.554 81.8546 214.354 82.7546C226.154 86.2546 237.154 92.3547 247.054 99.5547C252.454 103.455 257.654 107.755 262.354 112.455L262.554 112.655C262.354 112.455 262.354 112.055 262.054 111.855H262.154Z" fill="#346E3C" fill-opacity="0.55"/>
<path d="M262.354 111.655C255.054 104.155 246.354 97.6546 237.454 92.2546C232.954 89.5546 228.254 87.0547 223.354 85.0547C218.454 83.0547 213.454 81.5546 208.254 80.2546C186.254 75.1546 164.754 67.6547 142.154 65.4547C130.454 64.3547 118.854 64.3547 107.154 65.0547C106.754 65.0547 106.654 65.7546 107.154 65.7546C107.654 65.7546 108.254 66.0546 108.754 66.2546C109.554 66.4546 110.354 66.3546 111.254 66.2546C114.054 66.1546 116.954 66.0547 119.754 65.9547C125.454 65.9547 131.154 65.9547 136.854 66.3547C148.254 67.1547 159.554 69.0546 170.754 71.7546C181.754 74.4546 192.554 77.8547 203.654 80.4547C208.954 81.6547 214.154 82.7547 219.254 84.5547C224.354 86.3547 228.954 88.5547 233.454 91.0547C243.954 96.8547 253.954 104.155 262.354 112.755C262.654 113.055 263.154 112.755 262.954 112.255C262.754 111.955 262.654 111.755 262.454 111.455C262.154 111.055 261.554 111.455 261.854 111.855C262.054 112.155 262.154 112.355 262.354 112.655L262.954 112.155C255.554 104.655 246.754 98.0547 237.754 92.5547C228.854 87.1547 219.354 83.0546 209.154 80.7546C197.854 78.2546 186.854 74.9547 175.654 72.0547C164.754 69.2547 153.754 66.9547 142.554 65.8547C136.154 65.2547 129.754 64.9547 123.354 64.9547C120.154 64.9547 116.854 64.9547 113.554 65.1547C112.254 65.1547 110.754 65.5547 109.454 65.3547C108.754 65.2547 108.154 64.8546 107.454 64.7546V65.4547C117.454 64.8547 127.554 64.6547 137.654 65.4547C148.954 66.2547 160.054 68.2547 170.954 70.9547C181.854 73.6547 192.554 77.0547 203.554 79.5547C208.854 80.7547 214.154 81.8546 219.154 83.7546C224.154 85.6546 228.854 87.8547 233.454 90.3547C238.554 93.1547 243.354 96.3547 248.054 99.8547C252.954 103.455 257.654 107.355 261.954 111.755C262.254 112.155 262.854 111.555 262.454 111.255L262.354 111.655Z" fill="#346E3C" fill-opacity="0.55"/>
</svg>
